<?xml version="1.0" encoding="iso-8859-1"?>
<!-- Generator: Adobe Illustrator 19.0.0, SVG Export Plug-In . SVG Version: 6.00 Build 0)  -->
<svg version="1.1" id="Capa_1" xmlns="http://www.w3.org/2000/svg" xmlns:xlink="http://www.w3.org/1999/xlink" x="0px" y="0px"
	 viewBox="0 0 512 512" style="enable-background:new 0 0 512 512;" xml:space="preserve">
<path style="fill:#FE8100;" d="M256,0l-20.016,266.91L256,512c141.385,0,256-114.615,256-256S397.385,0,256,0z"/>
<path style="fill:#FFB742;" d="M0,256c0,141.385,114.615,256,256,256V0C114.615,0,0,114.615,0,256z"/>
<g>
	<path style="fill:#114378;" d="M256.03,64.153c-0.01,0-0.02,0.001-0.03,0.001l-20.016,34.845L256,127.891
		c0.01,0,0.02-0.001,0.03-0.001c25.402,0,45.994,20.592,45.994,45.994s-20.592,45.994-45.994,45.994l0,0H256l-20.016,47.032
		L256,313.942h31.869V278.9c45.028-13.678,77.893-55.578,77.893-105.015C365.762,113.379,316.536,64.153,256.03,64.153z"/>
	<polygon style="fill:#114378;" points="287.869,441.468 287.869,377.73 256,377.73 235.984,409.599 256,441.468 	"/>
</g>
<g>
	<rect x="224.13" y="377.73" style="fill:#266CB2;" width="31.869" height="63.738"/>
	<rect x="224.13" y="219.88" style="fill:#266CB2;" width="31.869" height="94.06"/>
	<path style="fill:#266CB2;" d="M154.657,131.894l58.876,24.387c6.907-16.657,23.315-28.378,42.468-28.39V64.154
		C210.373,64.166,171.171,92.172,154.657,131.894z"/>
</g>
<g>
</g>
<g>
</g>
<g>
</g>
<g>
</g>
<g>
</g>
<g>
</g>
<g>
</g>
<g>
</g>
<g>
</g>
<g>
</g>
<g>
</g>
<g>
</g>
<g>
</g>
<g>
</g>
<g>
</g>
</svg>
